<?xml version="1.0" encoding="utf-8"?>
<!-- Generator: Adobe Illustrator 25.1.0, SVG Export Plug-In . SVG Version: 6.00 Build 0)  -->
<svg version="1.1" id="Layer_1" xmlns="http://www.w3.org/2000/svg" xmlns:xlink="http://www.w3.org/1999/xlink" x="0px" y="0px"
	 viewBox="0 0 767.8 74.3" style="enable-background:new 0 0 767.8 74.3;" xml:space="preserve">
<style type="text/css">
	.st0{fill:#FFEED1;}
</style>
<g>
	<path class="st0" d="M570.8,37.4c0-1.5-1.3-2.8-2.9-2.8s-2.9,1.3-2.9,2.8c0,1.5,1.3,2.8,2.9,2.8c0,0,0,0,0,0
		C569.5,40.2,570.8,38.9,570.8,37.4C570.8,37.4,570.8,37.4,570.8,37.4z"/>
	<path class="st0" d="M579.9,37.4c0-1.5-1.3-2.8-2.9-2.8s-2.9,1.3-2.9,2.8c0,1.5,1.3,2.8,2.9,2.8S579.9,38.9,579.9,37.4L579.9,37.4z
		"/>
	<path class="st0" d="M589,37.4c0-1.5-1.3-2.8-2.9-2.8c-1.6,0-2.9,1.3-2.9,2.8c0,1.5,1.3,2.8,2.9,2.8C587.7,40.2,589,38.9,589,37.4
		L589,37.4z"/>
	<path class="st0" d="M598.1,37.4c0-1.5-1.3-2.8-2.9-2.8s-2.9,1.3-2.9,2.8c0,1.5,1.3,2.8,2.9,2.8c0,0,0,0,0,0
		C596.8,40.2,598.1,38.9,598.1,37.4C598.1,37.4,598.1,37.4,598.1,37.4z"/>
	<path class="st0" d="M607.2,37.4c0-1.5-1.3-2.8-2.9-2.8s-2.9,1.3-2.9,2.8c0,1.5,1.3,2.8,2.9,2.8S607.2,38.9,607.2,37.4L607.2,37.4z
		"/>
	<path class="st0" d="M616.3,37.4c0-1.5-1.3-2.8-2.9-2.8s-2.9,1.3-2.9,2.8c0,1.5,1.3,2.8,2.9,2.8S616.3,38.9,616.3,37.4L616.3,37.4z
		"/>
	<path class="st0" d="M625.4,37.4c0-1.5-1.3-2.8-2.9-2.8s-2.9,1.3-2.9,2.8c0,1.5,1.3,2.8,2.9,2.8C624.1,40.2,625.4,39,625.4,37.4
		C625.4,37.4,625.4,37.4,625.4,37.4z"/>
	<path class="st0" d="M634.5,37.4c0-1.5-1.3-2.8-2.9-2.8c-1.6,0-2.9,1.3-2.9,2.8c0,1.5,1.3,2.8,2.9,2.8
		C633.2,40.2,634.5,38.9,634.5,37.4L634.5,37.4z"/>
	<path class="st0" d="M643.6,37.4c0-1.5-1.3-2.8-2.9-2.8c-1.6,0-2.9,1.3-2.9,2.8c0,1.5,1.3,2.8,2.9,2.8
		C642.3,40.2,643.6,38.9,643.6,37.4L643.6,37.4z"/>
	<path class="st0" d="M652.6,37.4c0-1.5-1.3-2.8-2.9-2.8s-2.9,1.3-2.9,2.8c0,1.5,1.3,2.8,2.9,2.8C651.4,40.2,652.6,39,652.6,37.4
		C652.6,37.4,652.6,37.4,652.6,37.4z"/>
	<path class="st0" d="M661.7,37.4c0-1.5-1.3-2.8-2.9-2.8s-2.9,1.3-2.9,2.8c0,1.5,1.3,2.8,2.9,2.8S661.7,38.9,661.7,37.4L661.7,37.4z
		"/>
	<path class="st0" d="M670.8,37.4c0-1.5-1.3-2.8-2.9-2.8s-2.9,1.3-2.9,2.8c0,1.5,1.3,2.8,2.9,2.8S670.8,38.9,670.8,37.4L670.8,37.4z
		"/>
	<path class="st0" d="M680,37.4c0-1.5-1.3-2.8-2.9-2.8c-1.6,0-2.9,1.3-2.9,2.8c0,1.5,1.3,2.8,2.9,2.8C678.7,40.2,680,39,680,37.4
		C680,37.4,680,37.4,680,37.4z"/>
	<path class="st0" d="M689,37.4c0-1.5-1.3-2.8-2.9-2.8c-1.6,0-2.9,1.3-2.9,2.8c0,1.5,1.3,2.8,2.9,2.8C687.7,40.2,689,38.9,689,37.4
		L689,37.4z"/>
	<path class="st0" d="M698.1,37.4c0-1.5-1.3-2.8-2.9-2.8c-1.6,0-2.9,1.3-2.9,2.8c0,1.5,1.3,2.8,2.9,2.8
		C696.8,40.2,698.1,38.9,698.1,37.4L698.1,37.4z"/>
	<path class="st0" d="M707.2,37.4c0-1.5-1.3-2.8-2.9-2.8s-2.9,1.3-2.9,2.8c0,1.5,1.3,2.8,2.9,2.8C705.9,40.2,707.2,39,707.2,37.4
		C707.2,37.4,707.2,37.4,707.2,37.4z"/>
	<path class="st0" d="M716.3,37.4c0-1.5-1.3-2.8-2.9-2.8s-2.9,1.3-2.9,2.8c0,1.5,1.3,2.8,2.9,2.8S716.3,38.9,716.3,37.4L716.3,37.4z
		"/>
	<path class="st0" d="M725.4,37.4c0-1.5-1.3-2.8-2.9-2.8c-1.6,0-2.9,1.3-2.9,2.8c0,1.5,1.3,2.8,2.9,2.8c0,0,0,0,0,0
		C724.1,40.2,725.4,38.9,725.4,37.4C725.4,37.4,725.4,37.4,725.4,37.4z"/>
	<path class="st0" d="M734.5,37.4c0-1.5-1.3-2.8-2.9-2.8c-1.6,0-2.9,1.3-2.9,2.8c0,1.5,1.3,2.8,2.9,2.8
		C733.2,40.2,734.5,38.9,734.5,37.4L734.5,37.4z"/>
	<path class="st0" d="M743.6,37.4c0-1.5-1.3-2.8-2.9-2.8c-1.6,0-2.9,1.3-2.9,2.8c0,1.5,1.3,2.8,2.9,2.8S743.6,38.9,743.6,37.4
		L743.6,37.4z"/>
	<path class="st0" d="M752.7,37.4c0-1.5-1.3-2.8-2.9-2.8c-1.6,0-2.9,1.3-2.9,2.8c0,1.5,1.3,2.8,2.9,2.8c0,0,0,0,0,0
		C751.4,40.2,752.7,38.9,752.7,37.4C752.7,37.4,752.7,37.4,752.7,37.4z"/>
	<path class="st0" d="M761.8,37.4c0-1.5-1.3-2.8-2.9-2.8s-2.9,1.3-2.9,2.8c0,1.5,1.3,2.8,2.9,2.8C760.5,40.2,761.8,39,761.8,37.4
		C761.8,37.4,761.8,37.4,761.8,37.4z"/>
	<path class="st0" d="M457.5,37.4c3.9-0.8,7.8-1.9,11.6-3.2c3-1.4,5.9-3.1,8.5-5c0.6,1.3,0.4,2.9-0.4,4.1c-0.5,0.8-1.1,1.5-2,2
		c1.7-0.5,3.5-0.8,5.3-0.8c3.7,0,8.3,3,8.3,3s-4.6,3-8.3,3c-1.8,0-3.6-0.3-5.3-0.8c0.8,0.5,1.5,1.2,2,2c0.8,1.2,1,2.7,0.4,4.1
		c-2.7-1.9-5.5-3.6-8.5-5C465,38.9,457.5,37.4,457.5,37.4z"/>
	<path class="st0" d="M457.5,37.4c0,0,6.6,2.1,10.2,4.5c2,1.2,3.7,2.7,5.3,4.4c-1.2,0.1-2.5,0-3.7-0.2c-1.9-0.3-2.4-0.9-2.4-0.9
		c0.3,1,0.4,2.1,0.1,3.1c-0.3,1.3-1.2,2.5-2.4,3.2c-0.7-2.6-1.7-5.2-2.8-7.6C460.6,41.6,459.2,39.4,457.5,37.4z"/>
	<path class="st0" d="M457.5,37.4c0,0,6.6-2.1,10.2-4.5c2-1.2,3.7-2.7,5.3-4.4c-1.2-0.1-2.5,0-3.7,0.2c-0.9,0.1-1.7,0.4-2.4,0.9
		c0.3-1,0.4-2.1,0.1-3.1c-0.3-1.3-1.2-2.5-2.4-3.2c-0.7,2.6-1.7,5.2-2.8,7.6C460.6,33.2,459.2,35.4,457.5,37.4z"/>
	<path class="st0" d="M457.1,42.1L457.1,42.1c-1.9-2.1-4.3-3.7-6.9-4.7c2,2.6,3.7,5.3,5.2,8.2c0.9,1.7,1,3.7,0.2,5.5
		c-0.3,0.6-0.9,1-1.6,1.1l-1.3,0.7c-0.4,0.4-0.7,0.9-0.7,1.5c0.1,0.9,0.6,1.6,1.3,2.1c1.3,1,3.9,0.8,5.6-1.1
		C462.1,52,460.5,45.6,457.1,42.1z"/>
	<path class="st0" d="M457.1,32.7L457.1,32.7c-1.9,2.1-4.3,3.7-6.9,4.7c2-2.6,3.7-5.3,5.2-8.2c0.9-1.7,1-3.7,0.2-5.5
		c-0.4-0.6-0.9-1-1.6-1.2l-1.3-0.7c-0.5-0.4-0.7-0.9-0.7-1.5c0.1-0.8,0.6-1.6,1.3-2.1c1.3-1,3.9-0.8,5.6,1.1
		C462.1,22.8,460.5,29.1,457.1,32.7z"/>
	<path class="st0" d="M445.2,54.2c-1.8,2.3-4.8,3.4-7.7,2.7c-1.7-0.4-3.1-1.5-3.9-3c-0.9-1.8-0.6-4,0.8-5.5c1.1-1.3,2.9-1.8,4.5-1.3
		c1.7,0.5,2.8,2.3,2.4,4c-0.2,1-1,1.7-1.9,2c-0.8,0.3-1.7,0.1-2.3-0.3c-0.7-0.6-1-1.6-0.6-2.4c0.5-0.9,1.5-1.3,2.5-1.1
		c0.4,0.3,0.6,0.7,0.5,1.2c-0.2,0.5-0.8,0.3-1,0.7s0.3,0.9,0.7,0.8c0.5-0.2,0.9-0.6,1-1.1c0.2-1.2-0.5-2.3-1.6-2.7
		c-1.2-0.3-2.5,0-3.3,1c-1,1.2-1.3,2.9-0.6,4.3c0.6,1.1,1.7,2,3,2.2c1.8,0.3,3.7-0.1,5.2-1.1c2.6-1.7,2.9-4.9,1.8-7.6
		c-1.8-4.2-5.8-6.2-10.2-6.9c-4.9-0.8-10-0.8-14.9-0.1c-2.4,0.4-4.7,1-7,1.9c-3.2,1.3-11.8,6.1-9.8,11.5c0.4,1,1.3,1.8,2.4,1.9
		c1.3,0.2,2.5-0.3,3.4-1.2c0.6-0.7,0.6-1.7,0.1-2.6c-0.4-0.7-1.2-1.2-2-1.1c-0.6,0.1-1,0.4-1.3,0.9c-0.1,0.3,0,0.6,0.2,0.8
		c0.4,0.3,0.5-0.2,0.8-0.3c0.5-0.1,1,0.1,1.1,0.6c0.1,0.3,0,0.5-0.1,0.7c-0.4,0.6-1.2,0.9-1.9,0.7c-0.8-0.4-1.3-1.1-1.4-2
		c-0.1-1.4,1-2.6,2.4-2.7c1.4-0.1,2.7,0.5,3.3,1.7c0.7,1.2,0.5,2.7-0.3,3.8c-1.1,1.3-2.8,2-4.5,1.7c-1.6-0.2-2.9-1.3-3.4-2.7
		c-2.3-6.3,6.8-11.5,10.5-13c3.3-1.2,6.8-2,10.3-2.3c3.8-0.4,7.6-0.4,11.5,0c4.5,0.5,9.8,3.1,11.7,7.3c0.5,1.1,0.8,2.3,0.9,3.5
		C446.5,51.1,446.1,52.8,445.2,54.2z"/>
	<path class="st0" d="M406.4,44.5c0,0,6.5-2.4,10.6-1.6c4.5,1,6,3.8,6,5.4c0,1.4-1.5,1.2-1.2,2.5s2.6,1.3,3.2-0.6s-0.9-5.7-5.3-7.4
		C415.3,41.3,410.3,41.9,406.4,44.5z"/>
	<path class="st0" d="M418,41.7c-2.7-0.4-5.5-0.2-8.1,0.6c4.6,0.2,7.9-0.1,11.6,1.8c1.6,0.9,3.1,2,4.3,3.3c0.9,1,1.9,2,2.9,2.8
		c1.6,1,2.6,0.4,1.6-1.5c-1.3-2.3-4.6-4.4-7.2-5.5C421.4,42.5,419.7,42,418,41.7z"/>
	<path class="st0" d="M410.4,42.2c0,0,10.1-0.3,15.9,2.1c1.8,0.8,4.2,1.5,4.5,0.8s-0.7-1.5-2-2.1c-2.8-1-5.7-1.7-8.7-2
		C416.8,40.9,413.5,41.3,410.4,42.2z"/>
	<path class="st0" d="M441.2,45.2c0.1-0.9-0.2-1.7-0.8-2.4c-1.4-1.6-3.3-2.3-5.3-3c-1.1-0.2-2.2-0.2-3.3,0c2.3,0.2,4.5,1.1,6.4,2.4
		c0.5,0.4,1.6,1.5,1.2,2.2c-0.2,0.3-0.6,0.2-0.8,0.5c-0.4,0.6,0.5,1.2,0.9,1.2C440.3,46.2,440.9,45.8,441.2,45.2L441.2,45.2z"/>
	<path class="st0" d="M445.2,20.5c-1.8-2.3-4.8-3.4-7.7-2.7c-1.7,0.4-3.1,1.5-3.9,3c-0.9,1.8-0.6,4,0.8,5.5c1.1,1.3,2.9,1.8,4.5,1.3
		c1.7-0.5,2.8-2.3,2.4-4c-0.2-1-1-1.7-1.9-2c-0.8-0.3-1.7-0.1-2.3,0.3c-0.7,0.6-1,1.6-0.6,2.4c0.5,0.9,1.5,1.3,2.5,1.1
		c0.4-0.3,0.6-0.7,0.5-1.2c-0.2-0.5-0.8-0.3-1-0.7s0.3-0.9,0.7-0.8c0.5,0.2,0.9,0.6,1,1.1c0.2,1.2-0.5,2.3-1.6,2.7
		c-1.2,0.3-2.5,0-3.3-1c-1-1.2-1.3-2.9-0.6-4.3c0.6-1.1,1.7-2,3-2.2c1.8-0.3,3.7,0.1,5.2,1.1c2.6,1.7,2.9,4.9,1.8,7.6
		c-1.8,4.2-5.8,6.2-10.2,6.9c-4.9,0.8-10,0.8-14.9,0.1c-2.4-0.4-4.7-1-7-1.9c-3.2-1.3-11.8-6.1-9.8-11.5c0.4-1,1.3-1.8,2.4-1.9
		c1.3-0.2,2.5,0.3,3.4,1.2c0.6,0.7,0.6,1.7,0.1,2.6c-0.4,0.7-1.2,1.1-2,1.1c-0.6-0.1-1-0.4-1.3-0.9c-0.1-0.3,0-0.6,0.1-0.8
		c0.4-0.3,0.5,0.2,0.8,0.3c0.5,0.1,1-0.1,1.1-0.6c0.1-0.3,0-0.5-0.1-0.7c-0.4-0.6-1.2-0.9-1.9-0.7c-0.8,0.4-1.3,1.1-1.4,2
		c-0.1,1.4,1,2.6,2.4,2.7c1.4,0.1,2.7-0.5,3.3-1.7c0.7-1.2,0.5-2.7-0.3-3.8c-1.1-1.3-2.8-2-4.5-1.7c-1.6,0.2-2.9,1.3-3.4,2.7
		c-2.3,6.3,6.8,11.5,10.5,13c3.3,1.2,6.8,2,10.3,2.3c3.8,0.4,7.6,0.4,11.5,0c4.5-0.5,9.8-3.1,11.7-7.3c0.5-1.1,0.8-2.3,0.9-3.5
		C446.5,23.6,446.1,22,445.2,20.5z"/>
	<path class="st0" d="M436.4,37.4c0,0,4.2-1.3,6.4-2.3c1.7-0.9,3.2-2.2,4.5-3.6c0.3,1,0.2,2-0.2,2.9c-0.3,0.6-0.7,1.1-1.2,1.4
		c0.5-0.3,1.1-0.5,1.7-0.6c1,0,2.6,2.2,2.6,2.2s-1.6,2.2-2.6,2.2c-0.6-0.1-1.2-0.3-1.7-0.6c0.6,0.3,1,0.9,1.2,1.4
		c0.4,0.9,0.5,1.9,0.2,2.9c-1.3-1.4-2.8-2.7-4.5-3.6C440.6,38.7,436.4,37.4,436.4,37.4z"/>
	<path class="st0" d="M526.5,45.6c-2.2-6.7-13.9-3.2-13.9-3.2c-4.6,1.2-10.2,2.8-16.9,2.8c-5-0.1-10-0.4-15-1.1
		c0,0,4.7,3.9,14.7,3.7c10-0.2,14.4-3.2,19-4.2c0.1,0,9-2.8,10.8,2.6c0.3,0.9,0.1,2-0.6,2.7c-0.8,0.8-1.9,1.2-3.1,1
		c-0.8-0.2-1.4-0.9-1.5-1.7c-0.1-0.7,0.2-1.4,0.8-1.8c0.4-0.2,1-0.2,1.4,0c0.2,0.1,0.4,0.4,0.3,0.6c-0.1,0.4-0.5,0.2-0.8,0.2
		c-0.4,0.2-0.6,0.6-0.5,1c0.1,0.2,0.3,0.4,0.5,0.5c0.6,0.2,1.3,0,1.8-0.5c0.3-0.7,0.3-1.5-0.1-2.1c-0.7-1-2.1-1.3-3.2-0.6
		c-1,0.6-1.6,1.8-1.4,3c0.2,1.2,1.1,2.2,2.3,2.5c1.5,0.3,3-0.2,4.1-1.2C526.4,48.6,526.9,47.1,526.5,45.6z"/>
	<path class="st0" d="M510.4,37.4c0,0,16.8,1.8,22.8,3.2s12.3,6.8,12.3,6.8s1.4-3.6-0.6-5.8c-0.8-0.9-1.7-1.5-2.8-2
		c2.5,0.5,5.1,0.8,7.6,0.8c5.3,0,11.9-3,11.9-3s-6.6-3-11.9-3c-2.6,0-5.1,0.3-7.6,0.8c1.1-0.5,2-1.1,2.8-2c2-2.2,0.6-5.8,0.6-5.8
		s-6.3,5.4-12.3,6.8S510.4,37.4,510.4,37.4z"/>
	<path class="st0" d="M507,37.4c0-1.5-1.3-2.8-2.9-2.8c-1.6,0-2.9,1.2-2.9,2.8s1.3,2.8,2.9,2.8c0,0,0,0,0,0
		C505.7,40.2,507,38.9,507,37.4L507,37.4z"/>
	<path class="st0" d="M497.9,37.4c0-1.5-1.3-2.8-2.9-2.8c-1.6,0-2.9,1.3-2.9,2.8c0,1.5,1.3,2.8,2.9,2.8
		C496.6,40.2,497.9,38.9,497.9,37.4L497.9,37.4z"/>
	<path class="st0" d="M410.4,37.4c0-1.5-1.3-2.8-2.9-2.8s-2.9,1.3-2.9,2.8c0,1.5,1.3,2.8,2.9,2.8C409.1,40.2,410.4,38.9,410.4,37.4
		L410.4,37.4z"/>
	<path class="st0" d="M474.4,51.3c0-1.5-1.3-2.8-2.9-2.8s-2.9,1.3-2.9,2.8c0,1.5,1.3,2.8,2.9,2.8C473.1,54,474.4,52.8,474.4,51.3z"
		/>
	<path class="st0" d="M195,37.4c0-1.5,1.3-2.8,2.9-2.8s2.9,1.3,2.9,2.8s-1.3,2.8-2.9,2.8S195,38.9,195,37.4L195,37.4z"/>
	<path class="st0" d="M185.9,37.4c0-1.5,1.3-2.8,2.9-2.8s2.9,1.3,2.9,2.8s-1.3,2.8-2.9,2.8S185.9,38.9,185.9,37.4L185.9,37.4z"/>
	<path class="st0" d="M176.8,37.4c0-1.5,1.3-2.8,2.9-2.8c1.6,0,2.9,1.3,2.9,2.8s-1.3,2.8-2.9,2.8c0,0,0,0,0,0
		C178.1,40.2,176.8,38.9,176.8,37.4C176.8,37.4,176.8,37.4,176.8,37.4z"/>
	<path class="st0" d="M167.7,37.4c0-1.5,1.3-2.8,2.9-2.8c1.6,0,2.9,1.3,2.9,2.8s-1.3,2.8-2.9,2.8C169,40.2,167.7,38.9,167.7,37.4
		L167.7,37.4z"/>
	<path class="st0" d="M158.6,37.4c0-1.5,1.3-2.8,2.9-2.8s2.9,1.3,2.9,2.8s-1.3,2.8-2.9,2.8S158.6,38.9,158.6,37.4L158.6,37.4z"/>
	<path class="st0" d="M149.5,37.4c0-1.5,1.3-2.8,2.9-2.8c1.6,0,2.9,1.3,2.9,2.8s-1.3,2.8-2.9,2.8c0,0,0,0,0,0
		C150.8,40.2,149.5,38.9,149.5,37.4C149.5,37.4,149.5,37.4,149.5,37.4z"/>
	<path class="st0" d="M140.4,37.4c0-1.5,1.3-2.8,2.9-2.8s2.9,1.3,2.9,2.8s-1.3,2.8-2.9,2.8C141.7,40.2,140.4,38.9,140.4,37.4
		L140.4,37.4z"/>
	<path class="st0" d="M131.4,37.4c0-1.5,1.3-2.8,2.9-2.8s2.9,1.3,2.9,2.8c0,1.5-1.3,2.8-2.9,2.8C132.7,40.2,131.4,38.9,131.4,37.4
		L131.4,37.4z"/>
	<path class="st0" d="M122.2,37.4c0-1.5,1.3-2.8,2.9-2.8c1.6,0,2.9,1.3,2.9,2.8c0,1.5-1.3,2.8-2.9,2.8
		C123.5,40.2,122.3,39,122.2,37.4C122.2,37.4,122.2,37.4,122.2,37.4z"/>
	<path class="st0" d="M113.1,37.4c0-1.5,1.3-2.8,2.9-2.8c1.6,0,2.9,1.3,2.9,2.8c0,1.5-1.3,2.8-2.9,2.8
		C114.4,40.2,113.1,38.9,113.1,37.4L113.1,37.4z"/>
	<path class="st0" d="M104,37.4c0-1.5,1.3-2.8,2.9-2.8c1.6,0,2.9,1.3,2.9,2.8c0,1.5-1.3,2.8-2.9,2.8C105.3,40.2,104,38.9,104,37.4
		L104,37.4z"/>
	<path class="st0" d="M95,37.4c0-1.5,1.3-2.8,2.9-2.8c1.6,0,2.9,1.3,2.9,2.8c0,1.5-1.3,2.8-2.9,2.8C96.2,40.2,95,39,95,37.4
		C95,37.4,95,37.4,95,37.4z"/>
	<path class="st0" d="M85.9,37.4c0-1.5,1.3-2.8,2.9-2.8s2.9,1.3,2.9,2.8c0,1.5-1.3,2.8-2.9,2.8C87.1,40.2,85.9,38.9,85.9,37.4
		L85.9,37.4z"/>
	<path class="st0" d="M76.8,37.4c0-1.5,1.3-2.8,2.9-2.8c1.6,0,2.9,1.3,2.9,2.8c0,1.5-1.3,2.8-2.9,2.8C78,40.2,76.8,38.9,76.8,37.4
		L76.8,37.4z"/>
	<path class="st0" d="M67.7,37.4c0-1.5,1.3-2.8,2.9-2.8c1.6,0,2.9,1.3,2.9,2.8c0,1.5-1.3,2.8-2.9,2.8C69,40.2,67.7,39,67.7,37.4
		C67.7,37.4,67.7,37.4,67.7,37.4z"/>
	<path class="st0" d="M58.6,37.4c0-1.5,1.3-2.8,2.9-2.8c1.6,0,2.9,1.3,2.9,2.8c0,1.5-1.3,2.8-2.9,2.8C59.9,40.2,58.6,38.9,58.6,37.4
		L58.6,37.4z"/>
	<path class="st0" d="M49.5,37.4c0-1.5,1.3-2.8,2.9-2.8s2.9,1.3,2.9,2.8c0,1.5-1.3,2.8-2.9,2.8c0,0,0,0,0,0
		C50.8,40.2,49.5,38.9,49.5,37.4C49.5,37.4,49.5,37.4,49.5,37.4z"/>
	<path class="st0" d="M40.4,37.4c0-1.5,1.3-2.8,2.9-2.8s2.9,1.3,2.9,2.8c0,1.5-1.3,2.8-2.9,2.8C41.7,40.2,40.4,38.9,40.4,37.4
		L40.4,37.4z"/>
	<path class="st0" d="M31.3,37.4c0-1.5,1.3-2.8,2.9-2.8c1.6,0,2.9,1.3,2.9,2.8c0,1.5-1.3,2.8-2.9,2.8C32.6,40.2,31.3,38.9,31.3,37.4
		L31.3,37.4z"/>
	<path class="st0" d="M22.2,37.4c0-1.5,1.3-2.8,2.9-2.8c1.6,0,2.9,1.3,2.9,2.8c0,1.5-1.3,2.8-2.9,2.8C23.5,40.2,22.2,38.9,22.2,37.4
		L22.2,37.4z"/>
	<path class="st0" d="M13.1,37.4c0-1.5,1.3-2.8,2.9-2.8c1.6,0,2.9,1.3,2.9,2.8c0,1.5-1.3,2.8-2.9,2.8C14.4,40.2,13.1,39,13.1,37.4
		C13.1,37.4,13.1,37.4,13.1,37.4z"/>
	<path class="st0" d="M4,37.4c0-1.5,1.3-2.8,2.9-2.8s2.9,1.3,2.9,2.8c0,1.5-1.3,2.8-2.9,2.8C5.3,40.2,4,38.9,4,37.4L4,37.4z"/>
	<path class="st0" d="M308.3,37.4c-3.9-0.8-7.8-1.9-11.6-3.2c-3-1.4-5.9-3.1-8.5-5c-0.6,1.3-0.4,2.8,0.4,4.1c0.5,0.8,1.1,1.5,2,2
		c-1.7-0.5-3.5-0.8-5.3-0.8c-3.7,0-8.3,3-8.3,3s4.6,3,8.3,3c1.8,0,3.6-0.3,5.3-0.8c-0.8,0.5-1.5,1.2-2,2c-0.8,1.2-1,2.7-0.4,4.1
		c2.7-1.9,5.5-3.6,8.5-5C300.7,38.9,308.3,37.4,308.3,37.4z"/>
	<path class="st0" d="M308.3,37.4c0,0-6.6,2.1-10.2,4.5c-1.9,1.2-3.7,2.7-5.3,4.4c1.2,0.1,2.5,0,3.7-0.2c0.9-0.1,1.7-0.4,2.4-0.9
		c-0.3,1-0.4,2.1-0.1,3.1c0.3,1.3,1.2,2.5,2.4,3.2c0.7-2.6,1.7-5.2,2.8-7.6C305.2,41.6,306.6,39.4,308.3,37.4z"/>
	<path class="st0" d="M308.3,37.4c0,0-6.6-2.1-10.2-4.5c-1.9-1.2-3.7-2.7-5.3-4.4c1.2-0.1,2.5,0,3.7,0.2c0.9,0.1,1.7,0.4,2.4,0.9
		c-0.3-1-0.4-2.1-0.1-3.1c0.3-1.3,1.2-2.5,2.4-3.2c0.7,2.6,1.7,5.2,2.8,7.6C305.2,33.2,306.6,35.4,308.3,37.4z"/>
	<path class="st0" d="M308.7,42.1L308.7,42.1c1.9-2.1,4.3-3.7,6.9-4.7c-2,2.6-3.7,5.3-5.2,8.2c-0.9,1.7-1,3.7-0.2,5.5
		c0.4,0.6,0.9,1,1.6,1.1l1.3,0.7c0.4,0.4,0.7,0.9,0.7,1.5c-0.1,0.8-0.5,1.6-1.2,2.1c-1.3,1-3.9,0.8-5.6-1.1
		C303.7,52,305.4,45.6,308.7,42.1z"/>
	<path class="st0" d="M308.7,32.7L308.7,32.7c1.9,2.1,4.3,3.7,6.9,4.7c-2-2.6-3.7-5.3-5.2-8.2c-0.9-1.7-1-3.7-0.2-5.5
		c0.4-0.6,0.9-1,1.6-1.2l1.3-0.7c0.5-0.4,0.7-0.9,0.7-1.5c-0.1-0.8-0.6-1.6-1.3-2.1c-1.3-1-3.9-0.8-5.6,1.1
		C303.7,22.8,305.4,29.1,308.7,32.7z"/>
	<path class="st0" d="M320.6,54.2c1.8,2.3,4.8,3.4,7.7,2.7c1.7-0.4,3.1-1.5,3.9-3c0.9-1.8,0.6-4-0.8-5.5c-1.1-1.3-2.9-1.8-4.5-1.3
		c-1.8,0.5-2.8,2.3-2.4,4c0.2,1,1,1.7,1.9,2c0.8,0.3,1.7,0.1,2.3-0.3c0.7-0.6,1-1.6,0.6-2.4c-0.5-0.9-1.5-1.3-2.5-1.1
		c-0.4,0.3-0.6,0.7-0.5,1.2c0.2,0.5,0.8,0.3,1,0.7s-0.3,0.9-0.7,0.8c-0.5-0.2-0.9-0.6-1-1.1c-0.2-1.2,0.5-2.3,1.7-2.7
		c1.2-0.3,2.5,0.1,3.3,1c1,1.2,1.3,2.9,0.6,4.3c-0.6,1.1-1.7,2-3,2.2c-1.8,0.3-3.7-0.1-5.2-1.1c-2.6-1.7-2.9-4.9-1.8-7.6
		c1.8-4.2,5.8-6.2,10.2-6.9c4.9-0.8,10-0.8,14.9-0.1c2.4,0.4,4.7,1,7,1.9c3.2,1.3,11.8,6.1,9.8,11.5c-0.4,1-1.3,1.8-2.4,1.9
		c-1.3,0.2-2.5-0.3-3.4-1.2c-0.5-0.8-0.6-1.7-0.1-2.6c0.4-0.7,1.2-1.2,2-1.1c0.6,0.1,1,0.4,1.3,0.9c0.1,0.3,0,0.6-0.2,0.8
		c-0.4,0.3-0.5-0.2-0.8-0.3c-0.5-0.1-1,0.1-1.1,0.6c-0.1,0.3,0,0.5,0.1,0.7c0.4,0.6,1.2,0.9,1.9,0.7c0.8-0.4,1.3-1.1,1.4-2
		c0-1.4-1-2.6-2.4-2.7c-1.4-0.2-2.7,0.5-3.3,1.7c-0.7,1.2-0.6,2.7,0.3,3.8c1.1,1.3,2.8,2,4.5,1.7c1.6-0.2,2.9-1.3,3.4-2.7
		c2.3-6.3-6.8-11.5-10.5-13c-3.3-1.2-6.8-2-10.3-2.3c-3.8-0.4-7.6-0.4-11.5,0c-4.5,0.5-9.8,3.1-11.7,7.3c-0.5,1.1-0.8,2.3-0.9,3.5
		C319.2,51.1,319.7,52.8,320.6,54.2z"/>
	<path class="st0" d="M359.4,44.5c0,0-6.5-2.4-10.6-1.6c-4.5,1-6,3.8-6,5.4c0,1.4,1.5,1.2,1.2,2.5s-2.6,1.3-3.2-0.6
		c-0.6-1.9,0.9-5.7,5.3-7.4C350.5,41.3,355.5,41.9,359.4,44.5z"/>
	<path class="st0" d="M347.8,41.7c2.7-0.4,5.5-0.2,8.1,0.6c-4.6,0.2-7.9-0.1-11.6,1.8c-1.6,0.9-3.1,2-4.3,3.3c-0.9,1-1.9,2-2.9,2.8
		c-1.6,1-2.6,0.4-1.6-1.5c1.3-2.3,4.7-4.4,7.2-5.5C344.3,42.5,346.1,42,347.8,41.7z"/>
	<path class="st0" d="M355.4,42.2c0,0-10.1-0.3-15.9,2.1c-1.8,0.8-4.2,1.5-4.5,0.8s0.7-1.5,2-2.1c2.8-1,5.7-1.7,8.7-2
		C349,40.9,352.2,41.3,355.4,42.2z"/>
	<path class="st0" d="M324.6,45.2c-0.1-0.9,0.2-1.7,0.8-2.4c1.4-1.6,3.3-2.3,5.3-3c1.1-0.2,2.2-0.2,3.3,0c-2.3,0.2-4.5,1.1-6.4,2.4
		c-0.4,0.4-1.6,1.5-1.2,2.2c0.2,0.3,0.6,0.2,0.8,0.5c0.4,0.6-0.5,1.2-0.9,1.2C325.5,46.2,324.9,45.8,324.6,45.2L324.6,45.2z"/>
	<path class="st0" d="M320.6,20.5c1.8-2.3,4.8-3.4,7.7-2.7c1.7,0.4,3.1,1.5,3.9,3c0.9,1.8,0.6,4-0.8,5.5c-1.1,1.3-2.9,1.8-4.5,1.3
		c-1.7-0.5-2.8-2.3-2.4-4c0.2-1,1-1.7,1.9-2c0.8-0.3,1.7-0.1,2.3,0.3c0.7,0.6,1,1.6,0.6,2.4c-0.4,0.9-1.5,1.4-2.5,1.1
		c-0.4-0.3-0.6-0.7-0.5-1.2c0.2-0.5,0.8-0.3,1-0.7s-0.3-0.9-0.7-0.8c-0.5,0.2-0.9,0.6-1,1.1c-0.2,1.2,0.5,2.3,1.7,2.7
		c1.2,0.3,2.5-0.1,3.3-1c1-1.2,1.3-2.9,0.6-4.3c-0.6-1.1-1.7-2-3-2.2c-1.8-0.3-3.7,0.1-5.2,1.1c-2.6,1.7-2.9,4.9-1.8,7.6
		c1.8,4.2,5.8,6.2,10.2,6.9c4.9,0.8,10,0.8,14.9,0.1c2.4-0.4,4.7-1,7-1.9c3.2-1.3,11.8-6.1,9.8-11.5c-0.4-1-1.3-1.8-2.4-1.9
		c-1.3-0.2-2.5,0.3-3.4,1.2c-0.6,0.8-0.6,1.7-0.1,2.6c0.4,0.7,1.2,1.1,2,1.1c0.6-0.1,1-0.4,1.3-0.9c0.1-0.3,0-0.6-0.2-0.8
		c-0.4-0.3-0.5,0.2-0.8,0.3c-0.5,0.1-1-0.1-1.1-0.6c-0.1-0.3,0-0.5,0.1-0.7c0.4-0.6,1.2-0.9,1.9-0.7c0.8,0.4,1.3,1.1,1.4,2
		c0,1.4-1,2.6-2.4,2.7c-1.4,0.2-2.7-0.5-3.3-1.7c-0.7-1.2-0.6-2.7,0.3-3.8c1.1-1.3,2.8-2,4.5-1.7c1.6,0.2,2.9,1.3,3.4,2.7
		c2.3,6.3-6.8,11.5-10.5,13c-3.3,1.2-6.8,2-10.3,2.3c-3.8,0.4-7.6,0.4-11.5,0c-4.5-0.5-9.8-3.1-11.7-7.3c-0.5-1.1-0.8-2.3-0.9-3.5
		C319.2,23.7,319.6,22,320.6,20.5z"/>
	<path class="st0" d="M329.4,37.4c0,0-4.2-1.3-6.4-2.3c-1.7-0.9-3.2-2.2-4.5-3.6c-0.3,1-0.2,2,0.2,2.9c0.3,0.6,0.7,1.1,1.2,1.4
		c-0.5-0.3-1.1-0.5-1.7-0.6c-1,0-2.6,2.2-2.6,2.2s1.6,2.2,2.6,2.2c0.6-0.1,1.2-0.3,1.7-0.6c-0.6,0.3-1,0.9-1.2,1.4
		c-0.4,0.9-0.5,1.9-0.2,2.9c1.3-1.4,2.8-2.7,4.5-3.6C325.2,38.7,329.4,37.4,329.4,37.4z"/>
	<path class="st0" d="M239.3,45.6c2.2-6.7,13.9-3.2,13.9-3.2c4.6,1.2,10.2,2.8,16.9,2.8c5-0.1,10-0.4,15-1.1c0,0-4.7,3.9-14.7,3.7
		s-14.4-3.2-19-4.2c-0.1,0-9-2.8-10.8,2.6c-0.3,0.9-0.1,2,0.6,2.7c0.8,0.8,1.9,1.2,3.1,1c0.8-0.2,1.4-0.9,1.5-1.7
		c0.1-0.7-0.2-1.4-0.8-1.8c-0.4-0.2-1-0.2-1.4,0c-0.2,0.1-0.4,0.4-0.3,0.6c0.1,0.4,0.5,0.2,0.8,0.2c0.4,0.2,0.6,0.6,0.4,1
		c-0.1,0.2-0.3,0.4-0.5,0.5c-0.6,0.2-1.3,0-1.8-0.5c-0.4-0.7-0.3-1.5,0.1-2.1c0.7-1,2.1-1.3,3.2-0.6c1,0.6,1.6,1.8,1.3,3
		c-0.2,1.2-1.1,2.2-2.3,2.5c-1.5,0.3-3-0.2-4.1-1.2C239.3,48.6,238.9,47,239.3,45.6z"/>
	<path class="st0" d="M255.4,37.4c0,0-16.8,1.8-22.8,3.2s-12.3,6.8-12.3,6.8s-1.4-3.6,0.6-5.8c0.8-0.9,1.7-1.5,2.8-2
		c-2.5,0.5-5.1,0.8-7.6,0.8c-5.3,0-11.9-3-11.9-3s6.6-3,11.9-3c2.6,0,5.1,0.3,7.6,0.8c-1.1-0.5-2-1.1-2.8-2c-2-2.2-0.5-5.8-0.5-5.8
		s6.3,5.4,12.3,6.8C238.6,35.4,255.4,37.4,255.4,37.4z"/>
	<path class="st0" d="M258.8,37.4c0-1.5,1.3-2.8,2.9-2.8c1.6,0,2.9,1.2,2.9,2.8c0,1.5-1.3,2.8-2.9,2.8c0,0,0,0,0,0
		C260.1,40.2,258.8,38.9,258.8,37.4C258.8,37.4,258.8,37.4,258.8,37.4z"/>
	<path class="st0" d="M267.9,37.4c0-1.5,1.3-2.8,2.9-2.8s2.9,1.3,2.9,2.8s-1.3,2.8-2.9,2.8C269.1,40.2,267.9,38.9,267.9,37.4z"/>
	<path class="st0" d="M355.4,37.4c0-1.5,1.3-2.8,2.9-2.8c1.6,0,2.9,1.3,2.9,2.8s-1.3,2.8-2.9,2.8C356.7,40.2,355.4,38.9,355.4,37.4
		L355.4,37.4z"/>
	<path class="st0" d="M291.4,51.3c0-1.5,1.3-2.8,2.9-2.8s2.9,1.3,2.9,2.8s-1.3,2.8-2.9,2.8c0,0,0,0,0,0
		C292.7,54,291.4,52.8,291.4,51.3z"/>
	<path class="st0" d="M382.9,55.4c10.2,0,18.4-8.1,18.4-18s-8.2-18-18.4-18s-18.4,8.1-18.4,18S372.7,55.4,382.9,55.4z M382.9,22.7
		c8.3,0,15,6.6,15,14.7c0,8.1-6.7,14.7-15,14.7c-8.3,0-15-6.6-15-14.7C367.9,29.3,374.6,22.7,382.9,22.7z"/>
	<path class="st0" d="M387.9,36.5c-0.1-0.7-0.4-1.4-0.8-2v-0.1c1.4-0.2,2.7-0.6,4-1.3c1.1-0.9,1.8-2.1,2-3.5
		c0.3-1.8,0.5-2.7,0.5-2.7s-1,0.2-2.8,0.5c-1.4,0.1-2.7,0.8-3.6,1.9c-0.7,1.2-1.1,2.5-1.3,3.9c0,0-0.1,0-0.1,0
		c-0.6-0.4-1.3-0.7-2-0.8l-0.1-0.1c0.8-1.1,1.5-2.4,1.9-3.7c0.2-1.4-0.2-2.8-1.1-3.9c-1.1-1.4-1.6-2.3-1.6-2.3s-0.5,0.8-1.6,2.3
		c-0.9,1.1-1.3,2.5-1.1,3.9c0.4,1.3,1.1,2.6,1.9,3.7l-0.1,0.1c-0.7,0.1-1.4,0.4-2,0.8c0,0-0.1,0-0.1,0l0,0c-0.2-1.4-0.7-2.7-1.3-3.9
		c-0.9-1.1-2.2-1.8-3.6-1.9c-1.8-0.3-2.7-0.5-2.7-0.5s0.2,0.9,0.5,2.7c0.2,1.4,0.9,2.7,2,3.5c1.2,0.6,2.6,1.1,4,1.3l0,0v0.1
		c-0.4,0.6-0.7,1.3-0.8,2h-0.1l0,0c-1.1-0.8-2.4-1.4-3.7-1.8c-1.4-0.2-2.9,0.2-4,1.1c-1.5,1-2.3,1.6-2.3,1.6s0.8,0.5,2.3,1.6
		c1.1,0.9,2.5,1.3,4,1.1c1.3-0.4,2.6-1,3.7-1.8l0,0h0.1c0.1,0.7,0.4,1.4,0.8,2v0.1l0,0c-1.4,0.2-2.7,0.6-4,1.3
		c-1.2,0.8-1.9,2.1-2,3.5c-0.3,1.8-0.5,2.7-0.5,2.7s1-0.2,2.8-0.5c1.4-0.2,2.7-0.9,3.6-2c0.7-1.2,1.1-2.5,1.3-3.9l0,0
		c0,0,0.1,0,0.1,0c0.6,0.4,1.3,0.7,2,0.8l0.1,0.1l0,0c-0.8,1.1-1.5,2.3-1.9,3.7c-0.2,1.4,0.2,2.8,1.1,3.9c1.1,1.4,1.6,2.3,1.6,2.3
		s0.5-0.8,1.6-2.3c0.9-1.1,1.3-2.5,1.1-3.9c-0.4-1.3-1.1-2.5-1.9-3.7l0,0l0.1-0.1c0.7-0.1,1.4-0.4,2-0.8c0,0,0.1,0,0.1,0l0,0
		c0.2,1.4,0.7,2.7,1.3,3.9c0.9,1.1,2.2,1.9,3.6,2c1.8,0.3,2.8,0.5,2.8,0.5s-0.2-0.9-0.5-2.7c-0.1-1.4-0.9-2.7-2-3.5
		c-1.2-0.6-2.6-1.1-4-1.3l0,0v-0.1c0.4-0.6,0.7-1.3,0.8-2c0,0,0.1,0,0.1,0l0,0c1.1,0.8,2.4,1.4,3.7,1.8c1.4,0.2,2.9-0.2,4-1.1
		c1.5-1.1,2.3-1.6,2.3-1.6s-0.8-0.5-2.3-1.6c-1.1-0.9-2.5-1.3-4-1.1C390.4,35.1,389.1,35.7,387.9,36.5L387.9,36.5
		C388,36.5,387.9,36.5,387.9,36.5z M385.8,37.4c0,1.5-1.3,2.8-2.9,2.8c-1.6,0-2.9-1.3-2.9-2.8c0-1.5,1.3-2.8,2.9-2.8c0,0,0,0,0,0
		C384.5,34.6,385.7,35.8,385.8,37.4C385.8,37.4,385.8,37.4,385.8,37.4L385.8,37.4z"/>
</g>
</svg>
