<?xml version="1.0" encoding="utf-8"?>
<!-- Generator: Adobe Illustrator 25.1.0, SVG Export Plug-In . SVG Version: 6.00 Build 0)  -->
<svg version="1.1"
	 id="Layer_1" xmlns:cc="http://creativecommons.org/ns#" xmlns:dc="http://purl.org/dc/elements/1.1/" xmlns:inkscape="http://www.inkscape.org/namespaces/inkscape" xmlns:rdf="http://www.w3.org/1999/02/22-rdf-syntax-ns#" xmlns:sodipodi="http://sodipodi.sourceforge.net/DTD/sodipodi-0.dtd" xmlns:svg="http://www.w3.org/2000/svg"
	 xmlns="http://www.w3.org/2000/svg" xmlns:xlink="http://www.w3.org/1999/xlink" x="0px" y="0px" viewBox="0 0 576 576"
	 style="enable-background:new 0 0 576 576;" xml:space="preserve">
<style type="text/css">
	.st0{fill:#9E0052;}
</style>
<sodipodi:namedview  bordercolor="#666666" borderopacity="1" gridtolerance="10" guidetolerance="10" id="namedview4" inkscape:current-layer="Layer_1" inkscape:cx="290.5" inkscape:cy="235.5" inkscape:pageopacity="0" inkscape:pageshadow="2" inkscape:window-height="705" inkscape:window-maximized="1" inkscape:window-width="1366" inkscape:window-x="-8" inkscape:window-y="-8" inkscape:zoom="1.1380042" objecttolerance="10" pagecolor="#ffffff" showgrid="false">
	</sodipodi:namedview>
<path id="path10" inkscape:connector-curvature="0" class="st0" d="M263.8,457.8c-24.8-19.9-68.5-55.7-76.7-62.8
	c-2.2-1.9-3.7-3.7-3.5-4c1-1,17-9.6,17.8-9.6c0.5,0,8.4,6.1,17.7,13.6c59.1,47.7,69,55.4,71.6,55.3c2.6,0,86.5-70,104.1-86.9
	c25.7-24.6,48.1-54.3,61.9-82.1c7.1-14.4,11.2-26.6,13.5-40.3c1-5.8,2.1-11.1,2.5-11.8c0.5-0.8,3.6,0.7,9.8,5
	c10.7,7.4,10.5,6.5,6.1,23.5c-10.3,39.8-37.2,81.6-74.9,116.3C385.8,399.7,293,478.5,290.8,478.5
	C290.1,478.5,277.9,469.2,263.8,457.8L263.8,457.8z M122.3,388.9c-26.1-5.4-43.2-14.5-58.7-31c-12.5-13.4-21.7-30.6-26.2-49.1
	c-2.7-11.1-2.9-29.4-0.5-39.6c3.8-15.7,15.9-37.6,27.2-49.2c7.8-8,14.2-13.2,15.2-12.2c0.9,0.9,0.4,17.6-0.7,25.6
	c-0.8,5.4-2.1,8.4-7.5,17.4c-9.3,15.4-11,21.6-11,38.6c0,11.9,0.4,14.5,2.7,21.5c4,12,9.1,19.9,19.2,30s16.7,14.3,29.3,19.1
	c18.6,7,36.5,8.4,49.8,3.9c26.2-8.8,67.3-37.1,100.3-69.1l10.4-10.1l-10.4-8.5c-32.3-26.5-72.5-52.4-92.8-59.9
	c-11.1-4.1-24.9-5-39.1-2.4c-5.2,0.9-10.9,1.9-12.7,2.2l-3.2,0.5l2.4-10.1c3.5-14.9,4.5-16.9,9.1-17.8c2.1-0.4,11-0.8,19.8-0.8
	c13.8,0,16.9,0.3,22.7,2.2c29.8,9.8,60.9,28.5,102.8,61.7c9.6,7.6,18,14,18.7,14.3s7-4,14-9.4c44-34.2,70.3-51.7,89.5-59.7
	c26.7-11,52.4-12.8,75.1-5.2c19.7,6.6,34,15.3,47.1,28.5c13.7,13.9,22.7,29.2,26,44.1c2.5,11.4,3.1,37.8,1.2,46.2
	c-4,16.8-12.2,32-24.3,44.9c-22.6,24-53.2,35.9-89,34.7c-6.9-0.2-12.7-0.9-13.3-1.5c-0.8-0.8,0.6-3,4.8-8
	c12.7-14.7,10.6-13.5,26.2-15.2c34.5-3.9,64.7-29.1,71.5-59.7c1.3-5.7,1.6-10.5,1.2-19.3c-0.9-20.7-7-34.4-22.2-49.7
	c-7.2-7.3-10.8-9.9-18-13.6c-23.4-12-45.5-14-68.5-6.1c-22.6,7.7-65.3,35.2-97.7,63c-6.5,5.5-8,3.3,15.3,23.4
	c23.5,20.3,35.7,29.9,50.6,39.8c7,4.7,12.8,8.9,12.8,9.3c0,1.2-9.3,12.2-13,15.3c-1.8,1.5-3.9,2.5-4.6,2.2c-6-2.3-52.6-39.1-73.4-58
	c-5.2-4.7-9.8-8.6-10.2-8.6c-0.7,0-10.6,8.2-32.5,27.1c-24,20.6-48.9,38.1-67.8,47.6C163.8,391.4,147,394.1,122.3,388.9L122.3,388.9
	z M144.4,353.8c-16.6-17.2-35.9-48.1-45.9-73.1C87.7,253.4,84,225.3,88,202.2c8.4-48,49.6-85.5,99.8-90.7
	c22.1-2.3,47.5,3.8,69.2,16.7c7.7,4.6,24,19.4,29.8,27.2l2.6,3.4l11.8-12c15.9-16.2,27.6-23.7,45.8-29.6c13.5-4.4,19.2-5.2,35.5-5.1
	c12.5,0,17.2,0.5,24.3,2.2c30.4,7.6,52.6,23.9,71.1,52.3c7,10.7,12.9,23,11.8,24.2c-0.5,0.5-5.5-0.9-11.7-3.4
	c-11.8-4.7-11-4-27.8-22.4c-5.5-6-12.7-12.8-15.9-15.2c-21.8-16.1-52.4-20.8-78.8-12.1c-27.8,9.1-42.2,22.8-58.7,55.7
	c-3.4,6.8-6.6,12-7.2,11.7s-4-6.5-7.6-13.8c-3.6-7.2-8.3-15.7-10.5-18.9c-13.1-19.3-33.3-32.6-56.8-37.4c-12.4-2.5-30.6-1.6-42.1,2
	c-33.7,10.9-56.9,35.5-63.1,67c-2,10.1-1.7,32,0.5,42.5c6,28.7,20,54.1,48,87.5c7.4,8.8,13.3,16.3,13,16.7
	c-0.5,0.9-14.9,6.4-18.9,7.2C149.3,358.5,148.4,358,144.4,353.8L144.4,353.8z"/>
</svg>
